{"title":"X-Men.First.Class.2011.TS.x264.Feel-Free","uid":6449898,"size":1337412385,"categoryP":"video","categoryS":"movies","magnet":"?xt=urn:btih:2cdfceb970b9f59ada0f228fe1ed9c075f812c44&amp;dn=X-Men.First.Class.2011.TS.x264.Feel-Free&amp;tr=udp%3A%2F%2Ftracker.openbittorrent.com%3A80&amp;tr=udp%3A%2F%2Fopen.demonii.com%3A1337&amp;tr=udp%3A%2F%2Ftracker.coppersurfer.tk%3A6969&amp;tr=udp%3A%2F%2Fexodus.desync.com%3A6969","seeders":0,"leechers":1,"uploader":".BONE.","files":9,"time":1307387088,"description":"Genre:Action | Adventure | Drama\nLanguage:English\n &lt;a href=&quot;\nhttp://www.imdb.com/title/tt1270798/&quot; rel=&quot;nofollow&quot; target=&quot;_NEW&quot;&gt;\nhttp://www.imdb.com/title/tt1270798/&lt;/a&gt;\n\nSource:Russian (New Source)/EPIC/IMAGINE Thanks!\n\nFormat : MPEG-4\nFormat profile : Base Media\nCodec ID : isom\nFile size : 1.24 GiB\nDuration : 2h 3mn\nOverall bit rate : 1 443 Kbps\n\nVideo\nID : 1\nFormat : AVC\nFormat/Info : Advanced Video Codec\nFormat profile : &lt;a class=&quot;__cf_email__&quot; href=&quot;/cdn-cgi/l/email-protection&quot; data-cfemail=&quot;a0e8c9c7c8e0ec948e91&quot;&gt;[email&amp;#160;protected]&lt;/a&gt;&lt;script cf-hash='f9e31' type=&quot;text/javascript&quot;&gt;\n/* &lt;![CDATA[ */!function(){try{var t=&quot;currentScript&quot;in document?document.currentScript:function(){for(var t=document.getElementsByTagName(&quot;script&quot;),e=t.length;e--;)if(t[e].getAttribute(&quot;cf-hash&quot;))return t[e]}();if(t&amp;&amp;t.previousSibling){var e,r,n,i,c=t.previousSibling,a=c.getAttribute(&quot;data-cfemail&quot;);if(a){for(e=&quot;&quot;,r=parseInt(a.substr(0,2),16),n=2;a.length-n;n+=2)i=parseInt(a.substr(n,2),16)^r,e+=String.fromCharCode(i);e=document.createTextNode(e),c.parentNode.replaceChild(e,c)}}}catch(u){}}();/* ]]&gt; */&lt;/script&gt;\nFormat settings, CABAC : Yes\nFormat settings, ReFrames : 3 frames\nCodec ID : avc1\nCodec ID/Info : Advanced Video Coding\nDuration : 2h 3mn\nBit rate mode : Variable\nBit rate : 1 251 Kbps\nMaximum bit rate : 4 926 Kbps\nWidth : 720 pixels\nHeight : 336 pixels\nDisplay aspect ratio : 2.2:1\nFrame rate mode : Constant\nFrame rate : 25.000 fps\nColor space : YUV\nChroma subsampling : 4:2:0\nBit depth : 8 bits\nScan type : Progressive\nBits/(Pixel*Frame) : 0.207\nStream size : 1.08 GiB (86%)\nWriting library : x264\n\nAudio\nID : 2\nFormat : AAC\nFormat/Info : Advanced Audio Codec\nFormat version : Version 4\nFormat profile : LC\nFormat settings, SBR : No\nCodec ID : 40\nDuration : 2h 3mn\nBit rate mode : Variable\nBit rate : 192 Kbps\nMaximum bit rate : 213 Kbps\nChannel(s) : 2 channels\nChannel positions : Front: L R\nSampling rate : 44.1 KHz\nStream size : 169 MiB (13%)\n\n\nPlot:\nIn 1962, Charles Xavier starts up a school and later a team, for humans with superhuman abilities. Among them is Erik Lensherr, his best friend... and future archenemy\n &lt;a href=&quot;\nhttp://www.pix2links.com/images/67476877853679083671.png&quot; rel=&quot;nofollow&quot; target=&quot;_NEW&quot;&gt;\nhttp://www.pix2links.com/images/67476877853679083671.png&lt;/a&gt;\n &lt;a href=&quot;\nhttp://www.pix2links.com/images/76583274122740914712.png&quot; rel=&quot;nofollow&quot; target=&quot;_NEW&quot;&gt;\nhttp://www.pix2links.com/images/76583274122740914712.png&lt;/a&gt;\n &lt;a href=&quot;\nhttp://www.pix2links.com/images/99579405160364041097.png&quot; rel=&quot;nofollow&quot; target=&quot;_NEW&quot;&gt;\nhttp://www.pix2links.com/images/99579405160364041097.png&lt;/a&gt;\n &lt;a href=&quot;\nhttp://www.pix2links.com/images/81779006042629445781.png&quot; rel=&quot;nofollow&quot; target=&quot;_NEW&quot;&gt;\nhttp://www.pix2links.com/images/81779006042629445781.png&lt;/a&gt;\n &lt;a href=&quot;\nhttp://www.pix2links.com/images/25198594902521584000.png&quot; rel=&quot;nofollow&quot; target=&quot;_NEW&quot;&gt;\nhttp://www.pix2links.com/images/25198594902521584000.png&lt;/a&gt;","torrent":{"xt":"urn:btih:2cdfceb970b9f59ada0f228fe1ed9c075f812c44","amp;dn":"X-Men.First.Class.2011.TS.x264.Feel-Free","amp;tr":["udp%3A%2F%2Ftracker.openbittorrent.com%3A80","udp%3A%2F%2Fopen.demonii.com%3A1337","udp%3A%2F%2Ftracker.coppersurfer.tk%3A6969","udp%3A%2F%2Fexodus.desync.com%3A6969"],"infoHash":"2cdfceb970b9f59ada0f228fe1ed9c075f812c44","infoHashBuffer":{"type":"Buffer","data":[44,223,206,185,112,185,245,154,218,15,34,143,225,237,156,7,95,129,44,68]},"announce":[],"urlList":[]}}